<mxfile host="app.diagrams.net" modified="2023-07-12T18:24:32.365Z" agent="Mozilla/5.0 (Macintosh; Intel Mac OS X 10_15_7) AppleWebKit/537.36 (KHTML, like Gecko) Chrome/114.0.0.0 Safari/537.36" etag="Uga_XzHgBwkKY8ASpmam" version="21.6.1" type="google">
  <diagram name="Page-1" id="j_bJ5o1DQ8JPIS98t1Gs">
    <mxGraphModel grid="1" page="1" gridSize="10" guides="1" tooltips="1" connect="1" arrows="1" fold="1" pageScale="1" pageWidth="827" pageHeight="1169" math="0" shadow="0">
      <root>
        <mxCell id="0" />
        <mxCell id="1" parent="0" />
        <mxCell id="TJdt97mobkDwiNcE4mJ9-1" value="#1. Create a greeting for your program.&#xa;&#xa;&#xa;#2. Ask the user for the city that they grew up in.&#xa;&#xa;&#xa;#3. Ask the user for the name of a pet.&#xa;&#xa;&#xa;#4. Combine the name of their city and pet and show them their band name.&#xa;&#xa;&#xa;#5. Make sure the input cursor shows on a new line:" style="text;whiteSpace=wrap;" vertex="1" parent="1">
          <mxGeometry x="610" y="-20" width="440" height="210" as="geometry" />
        </mxCell>
        <mxCell id="TJdt97mobkDwiNcE4mJ9-11" style="edgeStyle=orthogonalEdgeStyle;rounded=0;orthogonalLoop=1;jettySize=auto;html=1;exitX=0.5;exitY=1;exitDx=0;exitDy=0;entryX=0.608;entryY=-0.033;entryDx=0;entryDy=0;entryPerimeter=0;" edge="1" parent="1" source="TJdt97mobkDwiNcE4mJ9-2" target="TJdt97mobkDwiNcE4mJ9-3">
          <mxGeometry relative="1" as="geometry" />
        </mxCell>
        <mxCell id="TJdt97mobkDwiNcE4mJ9-2" value="Start" style="rounded=1;whiteSpace=wrap;html=1;" vertex="1" parent="1">
          <mxGeometry x="190" y="20" width="120" height="60" as="geometry" />
        </mxCell>
        <mxCell id="TJdt97mobkDwiNcE4mJ9-10" style="edgeStyle=orthogonalEdgeStyle;rounded=0;orthogonalLoop=1;jettySize=auto;html=1;exitX=1;exitY=0.5;exitDx=0;exitDy=0;entryX=0.5;entryY=0;entryDx=0;entryDy=0;" edge="1" parent="1" source="TJdt97mobkDwiNcE4mJ9-3" target="TJdt97mobkDwiNcE4mJ9-5">
          <mxGeometry relative="1" as="geometry" />
        </mxCell>
        <mxCell id="TJdt97mobkDwiNcE4mJ9-3" value="Input User City" style="shape=parallelogram;perimeter=parallelogramPerimeter;whiteSpace=wrap;html=1;fixedSize=1;fillColor=#ffe6cc;strokeColor=#d79b00;" vertex="1" parent="1">
          <mxGeometry x="70" y="180" width="120" height="60" as="geometry" />
        </mxCell>
        <mxCell id="TJdt97mobkDwiNcE4mJ9-8" style="edgeStyle=orthogonalEdgeStyle;rounded=0;orthogonalLoop=1;jettySize=auto;html=1;entryX=0.5;entryY=0;entryDx=0;entryDy=0;" edge="1" parent="1" source="TJdt97mobkDwiNcE4mJ9-4" target="TJdt97mobkDwiNcE4mJ9-5">
          <mxGeometry relative="1" as="geometry" />
        </mxCell>
        <mxCell id="TJdt97mobkDwiNcE4mJ9-4" value="Input Name Pet" style="shape=parallelogram;perimeter=parallelogramPerimeter;whiteSpace=wrap;html=1;fixedSize=1;fillColor=#ffe6cc;strokeColor=#d79b00;" vertex="1" parent="1">
          <mxGeometry x="310" y="180" width="120" height="60" as="geometry" />
        </mxCell>
        <mxCell id="TJdt97mobkDwiNcE4mJ9-13" style="edgeStyle=orthogonalEdgeStyle;rounded=0;orthogonalLoop=1;jettySize=auto;html=1;entryX=0.5;entryY=0;entryDx=0;entryDy=0;" edge="1" parent="1" source="TJdt97mobkDwiNcE4mJ9-5" target="TJdt97mobkDwiNcE4mJ9-6">
          <mxGeometry relative="1" as="geometry" />
        </mxCell>
        <mxCell id="TJdt97mobkDwiNcE4mJ9-5" value="add city + pet" style="whiteSpace=wrap;html=1;aspect=fixed;fillColor=#dae8fc;strokeColor=#6c8ebf;" vertex="1" parent="1">
          <mxGeometry x="220" y="300" width="80" height="80" as="geometry" />
        </mxCell>
        <mxCell id="TJdt97mobkDwiNcE4mJ9-17" style="edgeStyle=orthogonalEdgeStyle;rounded=0;orthogonalLoop=1;jettySize=auto;html=1;exitX=0.5;exitY=1;exitDx=0;exitDy=0;entryX=0.5;entryY=0;entryDx=0;entryDy=0;" edge="1" parent="1" source="TJdt97mobkDwiNcE4mJ9-6" target="TJdt97mobkDwiNcE4mJ9-16">
          <mxGeometry relative="1" as="geometry" />
        </mxCell>
        <mxCell id="TJdt97mobkDwiNcE4mJ9-6" value="Output CIty Pet" style="shape=parallelogram;perimeter=parallelogramPerimeter;whiteSpace=wrap;html=1;fixedSize=1;fillColor=#d5e8d4;strokeColor=#82b366;" vertex="1" parent="1">
          <mxGeometry x="200" y="470" width="120" height="60" as="geometry" />
        </mxCell>
        <mxCell id="TJdt97mobkDwiNcE4mJ9-16" value="Stop" style="rounded=1;whiteSpace=wrap;html=1;fillColor=#f8cecc;strokeColor=#b85450;" vertex="1" parent="1">
          <mxGeometry x="200" y="585" width="120" height="60" as="geometry" />
        </mxCell>
        <mxCell id="TJdt97mobkDwiNcE4mJ9-18" value="" style="endArrow=classic;html=1;rounded=0;entryX=0.6;entryY=-0.033;entryDx=0;entryDy=0;entryPerimeter=0;" edge="1" parent="1" target="TJdt97mobkDwiNcE4mJ9-4">
          <mxGeometry width="50" height="50" relative="1" as="geometry">
            <mxPoint x="250" y="130" as="sourcePoint" />
            <mxPoint x="380" y="130" as="targetPoint" />
            <Array as="points">
              <mxPoint x="380" y="130" />
            </Array>
          </mxGeometry>
        </mxCell>
      </root>
    </mxGraphModel>
  </diagram>
</mxfile>
